<?xml version="1.0" encoding="utf-8"?>
<!-- Generator: Adobe Illustrator 22.0.1, SVG Export Plug-In . SVG Version: 6.00 Build 0)  -->
<svg version="1.1" id="Layer_1" xmlns="http://www.w3.org/2000/svg" xmlns:xlink="http://www.w3.org/1999/xlink" x="0px" y="0px"
	 viewBox="0 0 46 57.7" style="enable-background:new 0 0 46 57.7;" xml:space="preserve">
<style type="text/css">
	.st0{fill-rule:evenodd;clip-rule:evenodd;fill:#E45028;}
	.st1{fill:#FFFFFF;}
	.st2{fill-rule:evenodd;clip-rule:evenodd;fill:#FFFFFF;}
</style>
<g>
	<path class="st0" d="M23.1,57.7c-0.1,0-0.1,0-0.2,0c-0.1-0.1-0.1-0.2-0.2-0.2c-2.8-2.1-5.5-4.3-8-6.8c-2.7-2.6-5.1-5.3-7.3-8.3
		c-1.9-2.6-3.6-5.4-4.9-8.4c-1.1-2.7-2-5.5-2.3-8.4c-0.5-4.3,0.1-8.4,2-12.4c1.4-3,3.4-5.6,5.9-7.8c1.6-1.4,3.5-2.6,5.5-3.5
		c1.7-0.8,3.5-1.4,5.3-1.7c0.9-0.1,1.8-0.3,2.6-0.4c1,0,2.1,0,3.1,0c0.1,0,0.2,0.1,0.4,0.1c2,0.2,4,0.6,5.9,1.3
		c4,1.5,7.4,3.9,10.1,7.2c2.2,2.7,3.7,5.8,4.5,9.2c1,4.4,0.7,8.8-0.8,13.1c-1.7,5.2-4.7,9.7-8.1,13.8c-1.5,1.8-3.2,3.6-4.8,5.3
		c-2.2,2.3-4.5,4.4-7,6.3C24.2,56.8,23.7,57.3,23.1,57.7z"/>
</g>
<path class="st1" d="M29.9,18.7c-0.4,0.5-1.1,0.9-1.9,0.9c-1.1,0.1-1.7-0.9-1.8-3.1c-0.1-1.8,0.3-5.3,0.2-6.6l0-1
	c-0.4,0-2.2,7.5-3.1,8.8c-0.3,0.4-0.8,0.8-1.3,0.8c-1.4,0.1-2.3-1.5-2.4-3.8c-0.1-1.5,0.2-4.4,0.1-7.7c0-0.4-0.1-0.5-0.1-0.5
	c-1.3,0.1-4.1,8.6-4.3,12.9c0,0.6,0.1,1.7,0.2,2.2c-1.5-0.1-3.2-0.1-3.3-1.7c-0.1-1.4,0.7-4.4,1.6-7.1c0.6-1.9,3-8.3,5.5-8.4
	c2.8-0.1,2.5,4.9,2.7,9.7c0,0.8,0.1,1.3,0.2,1.7c2.6-7.6,3.1-9.8,4.7-9.9c0.9,0,1.6,1.1,1.7,2.7c0,0.9,0,2.7,0.1,3.9
	C28.8,17.7,29.3,17.5,29.9,18.7z"/>
<path class="st1" d="M38.4,11.3c0,1-2.6,5.1-5.1,5.1c-1.4,0-2-0.9-2-2.1c0-1,0.5-2,0.9-2.7c-2.4-0.4-2.7-1.5-2.7-2.1
	c0-1.2,1.2-1.9,2-1.9c0.6,0,0.8,0.5,0.8,0.8c0,0.4-0.2,0.8-0.4,1.4c1.2,0.3,3.1,0.3,3.1,1.2c0,0.8-1.4,2.2-1.5,3.4
	c0,0.4,0.2,0.7,0.5,0.7c1.3,0,3-2.9,3.7-4.4C38.2,10.8,38.4,11,38.4,11.3z"/>
<path class="st1" d="M40.1,22.3c0,0.7-1.9,3.7-3.7,3.7c-1,0-1.5-0.7-1.5-1.5c0-0.7,0.4-1.5,0.6-2c-1.7-0.3-1.9-1.1-1.9-1.6
	c0-0.9,0.9-1.4,1.4-1.4c0.4,0,0.6,0.4,0.6,0.6c0,0.3-0.1,0.6-0.3,1c0.9,0.2,2.3,0.2,2.2,0.9c0,0.6-1,1.6-1.1,2.4
	c0,0.3,0.1,0.5,0.4,0.5c1,0,2.2-2.1,2.7-3.2C40,21.9,40.1,22.1,40.1,22.3z"/>
<path class="st1" d="M40.4,29.8c0,0.6-1.5,2.9-2.9,2.9c-0.8,0-1.2-0.5-1.2-1.2c0-0.6,0.3-1.2,0.5-1.5c-1.4-0.2-1.5-0.9-1.5-1.2
	c0-0.7,0.7-1.1,1.1-1.1c0.3,0,0.4,0.3,0.4,0.5c0,0.2-0.1,0.5-0.2,0.8c0.7,0.2,1.8,0.2,1.8,0.7c0,0.5-0.8,1.3-0.8,1.9
	c0,0.2,0.1,0.4,0.3,0.4c0.7,0,1.7-1.7,2.1-2.5C40.3,29.5,40.4,29.6,40.4,29.8z"/>
<path class="st1" d="M37.9,15.6c0-0.8,0.9-1.5,2-1.4c1.1,0,2,0.6,2,1.2c0,1.1-1.1,2.2-2.3,2.2C38.5,17.5,37.9,16.2,37.9,15.6z"/>
<path class="st1" d="M21.7,33.9c0-0.5,0.6-0.9,1.3-0.9c0.7,0,1.2,0.3,1.2,0.8c0,0.7-0.7,1.4-1.4,1.4C22.1,35.1,21.7,34.3,21.7,33.9z
	"/>
<path class="st1" d="M12.9,24.6c0-0.5,0.6-0.9,1.3-0.9c0.7,0,1.2,0.3,1.2,0.8c0,0.7-0.7,1.4-1.4,1.4C13.3,25.8,12.9,25,12.9,24.6z"
	/>
<path class="st1" d="M25.8,28.5c0,1.3-1.1,2.9-3.7,2.8c-1.5,0-2.5-0.7-2.5-1.5c0-0.2,0.1-0.4,0.4-0.6c0.4,0.2,0.9,0.5,1.8,0.5
	c1.4,0,2.1-1,2.1-2c0-1-0.6-1.7-1.4-1.7c-0.7,0-1.4,0-1.9,0.3C20.2,26.3,20,26,20,25.7c0-0.5,0.4-0.7,1-0.7c0.2,0,0.5,0,0.8,0.1
	c0.9-0.3,2.2-1.3,2.3-2.7c0-1.2-1-1.9-2.6-1.9c-0.3,0-0.7,0-1.1,0.1c0.1,0.1,0.1,0.3,0.1,0.4c-1.7,3.1-2,9.5-0.8,11.5
	c-0.2,0.2-1,0.3-1.4,0.3c-0.9,0-1.5-0.6-1.6-1.5c-0.4-2.8,0.6-7.1,1.4-9.3c0.1-0.3,0.2-0.6,0.4-0.9c-0.6,0.3-1.1,0.6-1.5,1
	c-0.4-0.1-0.7-0.4-0.7-0.7c0-0.1,0-0.2,0.1-0.3c0.3-0.5,2.5-1.7,5.4-1.7c3.8,0.1,4.8,1.8,4.8,2.9c0,1.6-1.8,2.8-3.1,3.1
	C25,25.9,25.8,27.2,25.8,28.5z"/>
<path class="st1" d="M35.9,22.5c0,0.5-2,3.9-3.9,3.9c-0.8,0-1.3-0.4-1.4-1.3c-0.6,0.7-1.3,1.3-2.1,1.3c-1,0-1.4-0.6-1.4-1.8
	c0-0.5,0.1-1.4,0.1-2.4c0-0.6,0-0.9-0.1-1.4c0.4-0.1,0.8-0.1,1.2-0.1c0.7,0,1,0.4,0.9,1.1c0,0.5-0.2,1.6-0.2,2.3
	c0,0.5,0.1,0.7,0.2,0.7c0.2,0,0.8-0.3,1.3-1.2c0.1-0.6,0.1-1.2,0.1-1.7c0-0.5,0-0.9-0.1-1.1c0.2,0,0.5-0.1,0.8-0.1
	c0.9,0,1.3,0.5,1.3,1.6c0,0.4-0.2,1.3-0.2,2c0,0.6,0.1,0.9,0.3,1c0.5,0,1.8-1.7,2.5-3.3C35.6,21.9,36,22.1,35.9,22.5z"/>
<path class="st1" d="M32.9,30.6c-1,0-1.9,0.4-2.8,0.9l0,0.3c0,1.7-0.7,4.5-2.5,4.5c-0.7,0-1.2-0.5-1.1-1.2c0-1.2,1-2.5,2.2-3.4
	c0-0.1,0-0.1,0-0.2C28.4,31.8,28,32,27.5,32c-0.7,0-1.1-0.5-1.1-1.3c0-1.3,1.4-2.5,2.7-2.4c0.4,0,0.9,0.2,0.8,0.5
	c0,0.3-0.3,0.4-0.8,0.6c-0.1-0.2-0.2-0.3-0.3-0.3c-0.4,0-1,1-1,1.6c0,0.3,0.1,0.4,0.2,0.4c0.3,0,0.7-0.6,0.6-1.2
	c0.5-0.3,0.6-0.3,0.8-0.3c0.4,0,0.6,0.3,0.7,1.1c0.8-0.4,1.7-0.7,2.4-0.6C32.8,30.1,33,30.3,32.9,30.6z M28.7,32.8
	c-0.7,0.8-1.1,1.7-1.1,2.6c0,0.2,0,0.4,0.2,0.4C28.2,35.8,28.5,34.1,28.7,32.8z"/>
<path class="st1" d="M37.4,30.5c0,0.5-1.8,3.1-3.7,3.1c-1.5,0-2.5-1.1-2.5-2.5c0-1.4,0.9-2.5,2.1-2.4c0.8,0,1.3,0.5,1.3,1.4
	c0,0.9-0.7,1.6-1.4,2c0.2,0.3,0.5,0.5,0.8,0.5c0.8,0,1.9-1,2.7-2.4C37.1,30,37.4,30.1,37.4,30.5z M32.9,30.6c0,0.2,0,0.4,0,0.6
	c0.3-0.3,0.6-0.7,0.6-1.2c0-0.2-0.1-0.4-0.2-0.4C33.1,29.6,32.9,30.1,32.9,30.6z"/>
<polygon class="st2" points="0,17.2 0,17.2 0,17.2 "/>
<g>
	<path class="st2" d="M7.1,26.6c0.1-0.1,0.3-0.3,0.5-0.5c0,0.4,0,0.6-0.2,0.9c0,0.1,0,0.1-0.1,0.1c0,0.1-0.1,0.2-0.3,0.3
		c0,0-0.1,0-0.1,0.1c-0.1,0-0.1,0.1-0.2,0.1c0,0-0.1,0-0.1,0c0,0.1,0,0.1,0,0.2c0.5,0.1,1,0.1,1.5-0.1c0.5-0.2,0.8-0.6,1.1-1
		c0-0.1,0.1-0.2,0.2-0.2c0.1-0.1,0.2-0.2,0.3-0.3c0.1-0.1,0.2-0.2,0.3-0.2c0.2-0.2,0.5-0.3,0.8-0.3c0-0.3-0.4-0.3-0.5-0.5
		c-0.8-0.5-1.7-1-2.7-1.1c-0.1,0-0.1,0-0.2,0c-0.1,0-0.2,0.1-0.3,0.1c-1,0.3-1.9,0.9-2.8,1.2c-0.7,0.3-1.5,0.4-2.2,0.3
		c-0.2,0-0.4-0.2-0.7-0.1c0.4,0.7,1.1,1.2,1.8,1.5c0.9,0.4,1.7,0.2,2.6,0c0.2-0.1,0.4-0.2,0.6-0.3C6.7,26.9,6.9,26.7,7.1,26.6z"/>
	<path class="st2" d="M13.8,29.5c-0.5-0.2-1-0.3-1.5-0.1c-0.7,0.3-1.4,0.5-2.2,0.8c-0.6,0.2-1.2,0.3-1.8,0.3c-0.1,0-0.3-0.1-0.4,0.1
		c1.2,0.5,2.3,1.1,3.7,0.8c0.4-0.2,0.8-0.3,1.2-0.5c0,0,0.1,0,0.1-0.1c0.5-0.3,1-0.6,1.6-0.8C14.4,29.6,14,29.6,13.8,29.5z"/>
	<path class="st2" d="M9.4,19.6c-0.4-0.2-0.8-0.2-1.2-0.2c-0.5,0-1,0-1.5-0.1c0,0-0.1,0-0.1-0.1c0.1,0.4,0.4,0.7,0.7,1
		c0.2,0.2,0.4,0.2,0.6,0.2c0.6,0,1.3-0.2,1.9-0.1c0.1,0,0.2,0,0.3,0.1C9.9,20.1,9.7,19.8,9.4,19.6z"/>
	<path class="st2" d="M16.6,34.6c-0.5-0.2-1-0.2-1.4,0.1c-0.2,0.2-0.5,0.3-0.9,0.4c0.5,0.2,1,0.3,1.5,0.3c0.3,0,0.7-0.2,0.9-0.5
		C16.7,34.7,16.8,34.7,16.6,34.6z"/>
</g>
</svg>
